<svg width="18" height="18" viewBox="0 0 18 18" fill="none" xmlns="http://www.w3.org/2000/svg">
<path fill-rule="evenodd" clip-rule="evenodd" d="M3 0H15C16.6569 0 18 1.20883 18 2.7V15.3C18 16.7912 16.6569 18 15 18H3C1.34315 18 0 16.7912 0 15.3V2.7C0 1.20883 1.34315 0 3 0ZM2 13.4957V4.5C2 3.00883 3.34315 1.8 5 1.8H9H13.2C14.8569 1.8 16 3.00883 16 4.5V13.4957V13.4957C16 14.9892 14.7893 16.2 13.2957 16.2H13L9 16.19L5.00476 16.1957C3.34605 16.1981 2 14.9886 2 13.4957Z" fill="white"/>
<path d="M2 4.5V13.4957C2 14.9886 3.34605 16.1981 5.00476 16.1957L9 16.19V13.5L6 9L9 4.5V1.8H5C3.34315 1.8 2 3.00883 2 4.5Z" fill="#7DB4D3"/>
<path d="M13.2 1.8H9V4.5L12 9L9 13.5V16.19L13 16.2H13.2957C14.7893 16.2 16 14.9892 16 13.4957V13.4957V4.5C16 3.00883 14.8569 1.8 13.2 1.8Z" fill="black"/>
<path d="M9 4.5L6 9L9 13.5L12 9L9 4.5Z" fill="white"/>
</svg>
