<svg xmlns="http://www.w3.org/2000/svg" version="1.1" xmlns:xlink="http://www.w3.org/1999/xlink" xmlns:svgjs="http://svgjs.com/svgjs" width="508" height="508"><svg width="508" height="508" viewBox="0 0 508 508" fill="none" xmlns="http://www.w3.org/2000/svg">
<rect x="405" y="258" width="69.9456" height="250" rx="15" fill="#005C9E"></rect>
<rect x="313" y="508" width="66" height="195" rx="15" transform="rotate(-90 313 508)" fill="#005C9E"></rect>
<rect x="332" y="324" width="66" height="143" rx="15" transform="rotate(-90 332 324)" fill="#005C9E"></rect>
<rect y="258" width="66" height="250" rx="15" fill="#5A7C84"></rect>
<path d="M160 306C160 297.716 166.716 291 175 291H206.435C218.899 291 225.926 305.318 218.301 315.177L204.532 332.979C201.183 337.309 200.458 343.12 202.642 348.139L213.811 373.819C215.521 377.75 215.467 382.226 213.663 386.115L202.259 410.694C200.272 414.978 200.418 419.949 202.654 424.109L225.119 465.898C230.491 475.891 223.252 488 211.907 488H175C166.716 488 160 481.284 160 473V306Z" fill="#5A7C84"></path>
<path d="M15 324C6.71573 324 0 317.284 0 309L0 273C0 264.716 6.71573 258 15 258H200C227.614 258 250 280.386 250 308V309C250 317.284 243.284 324 235 324H15Z" fill="#5A7C84"></path>
<path d="M15 508C6.71573 508 0 501.284 0 493L0 457C0 448.716 6.71573 442 15 442H235C243.284 442 250 448.716 250 457V458C250 485.614 227.614 508 200 508H15Z" fill="#5A7C84"></path>
<path d="M15 404C6.71573 404 0 397.284 0 389L0 376C0 367.716 6.71573 361 15 361H166C174.284 361 181 367.716 181 376V389C181 397.284 174.284 404 166 404H15Z" fill="#5A7C84"></path>
<path d="M175 357C166.716 357 160 350.284 160 342V306C160 297.716 166.716 291 175 291H235C243.284 291 250 297.716 250 306V312C250 336.853 229.853 357 205 357H175Z" fill="#5A7C84"></path>
<path d="M175 409C166.716 409 160 415.716 160 424V460C160 468.284 166.716 475 175 475H235C243.284 475 250 468.284 250 460V459C250 431.386 227.614 409 200 409H175Z" fill="#5A7C84"></path>
<rect x="258" width="66" height="250" rx="15" fill="#AEC5D5"></rect>
<rect x="258" y="250" width="66" height="250" rx="15" transform="rotate(-90 258 250)" fill="#AEC5D5"></rect>
<rect x="442" width="66" height="250" rx="15" fill="#AEC5D5"></rect>
<rect y="184" width="250" height="66" rx="15" fill="#030512"></rect>
<rect width="250" height="66" rx="15" fill="#030512"></rect>
<rect y="250" width="250" height="66" rx="15" transform="rotate(-90 0 250)" fill="#030512"></rect>
</svg><style>@media (prefers-color-scheme: light) { :root { filter: none; } }
</style></svg>